<svg xmlns="http://www.w3.org/2000/svg" viewBox="0 0 64 64" role="img" aria-label="SmartTodo">
  <defs>
    <linearGradient id="bg" x1="10" y1="6" x2="54" y2="58" gradientUnits="userSpaceOnUse">
      <stop stop-color="#4f8cff"/>
      <stop offset="1" stop-color="#17b890"/>
    </linearGradient>
    <linearGradient id="mark" x1="23" y1="18" x2="44" y2="45" gradientUnits="userSpaceOnUse">
      <stop stop-color="#ffffff"/>
      <stop offset="1" stop-color="#e9fbf6"/>
    </linearGradient>
  </defs>
  <rect width="64" height="64" rx="16" fill="url(#bg)"/>
  <path
    d="M29.6 45.5c-.9 0-1.8-.4-2.4-1l-9.1-9.1a3.4 3.4 0 1 1 4.8-4.8l6.5 6.5 12-17.7a3.4 3.4 0 1 1 5.6 3.8L32.4 44a3.4 3.4 0 0 1-2.5 1.5h-.3Z"
    fill="url(#mark)"/>
  <path
    d="M43.9 18.1c2.5 0 4.5 2 4.5 4.5s-2 4.5-4.5 4.5h-4.2l2.1-3.1a5.4 5.4 0 0 0 .7-5.7c.5-.1.9-.2 1.4-.2Z"
    fill="#ffffff"
    opacity=".32"/>
</svg>
